<?xml version="1.0" standalone="no"?>
<!DOCTYPE svg PUBLIC "-//W3C//DTD SVG 20010904//EN"
 "http://www.w3.org/TR/2001/REC-SVG-20010904/DTD/svg10.dtd">
<svg version="1.0" xmlns="http://www.w3.org/2000/svg"
 width="740.000000pt" height="521.000000pt" viewBox="0 0 740.000000 521.000000"
 preserveAspectRatio="xMidYMid meet">

<g transform="translate(0.000000,521.000000) scale(0.100000,-0.100000)"
fill="#000000" stroke="none">
<path d="M3988 4057 l-98 -53 68 -22 c39 -13 68 -18 70 -12 2 6 24 10 48 10
24 0 44 2 44 5 0 3 -12 23 -26 44 -21 32 -24 43 -14 60 6 12 9 21 8 21 -2 0
-47 -24 -100 -53z"/>
<path d="M3208 3821 c-75 -24 -115 -51 -172 -111 -57 -61 -94 -138 -107 -222
-5 -35 -8 -164 -7 -288 l3 -225 95 0 95 0 5 255 c5 255 5 255 32 301 29 50 85
94 139 109 19 6 175 10 354 10 316 0 321 -1 370 -24 60 -28 97 -66 124 -126
19 -41 21 -65 21 -287 l0 -243 96 0 95 0 -3 283 -3 282 -32 67 c-44 93 -100
151 -191 196 l-76 37 -390 2 c-356 2 -396 1 -448 -16z"/>
<path d="M5080 3696 c0 -2 8 -10 18 -17 15 -13 16 -12 3 4 -13 16 -21 21 -21
13z"/>
<path d="M2259 3503 c-13 -17 -13 -17 6 -3 11 8 22 16 24 17 2 2 0 3 -6 3 -6
0 -17 -8 -24 -17z"/>
<path d="M2301 3467 c-13 -21 -12 -21 5 -5 10 10 16 20 13 22 -3 3 -11 -5 -18
-17z"/>
<path d="M2160 3231 c-33 -20 -143 -70 -167 -76 0 0 10 -34 25 -75 36 -105 36
-225 -2 -331 -30 -88 -32 -115 -10 -190 53 -183 210 -299 404 -299 208 0 373
140 412 348 10 55 9 63 -18 128 -26 62 -29 80 -29 184 0 101 3 122 26 176 l26
62 -41 12 c-23 6 -73 29 -113 51 l-72 39 -198 -1 c-197 -1 -198 -1 -243 -28z
m509 -53 c47 -24 88 -44 90 -45 2 -2 -3 -34 -12 -72 -30 -122 -20 -255 26
-364 14 -32 15 -47 6 -90 -38 -175 -174 -295 -348 -305 -177 -10 -326 91 -380
256 -26 79 -26 86 3 174 35 104 42 196 21 288 -26 113 -29 104 65 154 l85 44
179 1 179 1 86 -42z"/>
<path d="M2444 2840 c-70 -115 -77 -119 -114 -75 -7 9 -26 25 -41 36 l-28 19
-31 -45 c-17 -25 -29 -49 -25 -54 6 -11 161 -101 173 -101 4 0 19 12 32 28 13
15 65 72 116 128 l93 100 -49 37 c-27 20 -52 37 -54 37 -3 0 -35 -49 -72 -110z"/>
<path d="M5409 2503 c-13 -16 -12 -17 4 -4 16 12 20 12 35 -3 16 -16 16 -18
-2 -32 -11 -8 -15 -14 -10 -14 12 0 34 21 34 31 0 10 -29 39 -39 39 -5 0 -15
-8 -22 -17z"/>
<path d="M5045 2266 c-12 -18 -15 -41 -12 -90 4 -62 7 -69 52 -118 26 -29 43
-46 39 -38 -6 11 -3 10 8 -2 20 -22 41 -23 58 -3 31 37 -32 91 -113 97 l-34 3
33 39 c18 21 36 51 39 67 13 60 -39 93 -70 45z"/>
<path d="M2165 2216 c-15 -22 -15 -28 0 -63 9 -21 27 -50 41 -64 14 -15 19
-26 12 -26 -32 -1 -96 -25 -116 -43 -40 -37 -19 -87 31 -75 29 8 91 80 82 95
-4 6 -1 9 7 8 10 -2 14 17 16 76 2 63 -1 82 -14 97 -23 25 -40 24 -59 -5z"/>
<path d="M4882 2228 c-29 -29 4 -150 61 -225 39 -52 72 -71 102 -59 18 7 20
46 3 68 -18 22 -74 41 -102 36 -32 -6 -37 16 -14 62 32 61 20 130 -22 130 -9
0 -21 -5 -28 -12z"/>
<path d="M2330 2164 c-14 -35 -13 -42 14 -101 13 -28 22 -54 18 -57 -3 -3 -20
-6 -37 -6 -48 0 -100 -39 -100 -75 0 -26 4 -30 31 -33 28 -3 37 3 76 55 53 68
88 185 68 222 -16 31 -58 28 -70 -5z"/>
<path d="M5200 2167 c-35 -12 -40 -33 -8 -31 9 0 15 -3 13 -6 -6 -10 68 -32
95 -28 64 9 39 79 -29 77 -20 0 -52 -5 -71 -12z"/>
<path d="M4782 2072 c-15 -75 -16 -90 -1 -75 15 15 29 92 20 115 -5 14 -10 2
-19 -40z"/>
<path d="M1956 2105 c-9 -10 -16 -27 -14 -39 4 -31 61 -33 125 -3 48 22 50 24
31 36 -11 7 -44 15 -72 18 -41 4 -56 2 -70 -12z"/>
<path d="M2476 2069 c-4 -20 -3 -53 3 -75 6 -21 11 -43 11 -49 1 -5 -22 -17
-50 -26 -28 -9 -59 -24 -70 -34 -41 -37 -13 -93 37 -74 21 8 66 66 96 124 13
27 13 36 -3 100 -17 69 -17 70 -24 34z"/>
<path d="M4563 2018 c-70 -112 -473 -819 -473 -832 0 -35 16 -36 515 -36 503
0 515 1 515 38 0 7 -70 135 -156 284 -144 249 -156 271 -144 293 14 25 7 60
-10 50 -5 -3 -7 0 -4 8 3 10 -7 19 -33 30 -31 12 -46 28 -82 93 -73 131 -86
138 -128 72z m275 -417 c117 -202 212 -373 212 -379 0 -7 -9 -16 -19 -20 -11
-4 -209 -6 -441 -4 -356 2 -422 5 -426 17 -3 8 31 79 77 157 278 482 343 594
352 600 6 3 15 4 22 2 6 -3 107 -170 223 -373z"/>
<path d="M4563 1656 c15 -238 21 -268 55 -247 10 6 43 328 35 344 -2 4 -25 7
-50 7 l-46 0 6 -104z"/>
<path d="M4587 1343 c-13 -12 -7 -41 9 -47 22 -9 34 1 34 30 0 17 -6 24 -18
24 -10 0 -22 -3 -25 -7z"/>
<path d="M4796 1950 c27 -44 68 -88 90 -94 28 -8 54 17 47 44 -7 28 -53 62
-75 57 -10 -3 -16 -2 -13 3 3 4 -11 10 -29 12 -35 4 -35 4 -20 -22z"/>
<path d="M2536 1820 c-85 -26 -107 -127 -22 -106 27 7 74 73 68 99 -4 19 -5
19 -46 7z"/>
<path d="M1805 1650 c10 -11 20 -20 23 -20 3 0 -3 9 -13 20 -10 11 -20 20 -23
20 -3 0 3 -9 13 -20z"/>
<path d="M1910 1556 c0 -2 8 -10 18 -17 15 -13 16 -12 3 4 -13 16 -21 21 -21
13z"/>
<path d="M5052 778 c-28 -28 -7 -78 33 -78 27 0 45 18 45 45 0 27 -18 45 -45
45 -12 0 -26 -5 -33 -12z"/>
<path d="M5830 690 c0 -44 -2 -80 -5 -80 -2 0 -21 12 -42 26 -31 21 -46 25
-82 21 -83 -9 -134 -72 -134 -167 0 -65 21 -110 66 -144 40 -29 115 -29 156 2
37 27 41 27 41 2 0 -16 7 -20 35 -20 l35 0 0 218 0 218 -35 2 -35 3 0 -81z
m-43 -115 c32 -23 47 -77 33 -120 -32 -96 -156 -83 -175 18 -7 38 13 89 42
106 26 15 76 13 100 -4z"/>
<path d="M1576 548 c-38 -106 -71 -199 -73 -205 -4 -9 7 -13 34 -13 37 0 41 3
56 40 l15 40 86 0 85 0 12 -40 c11 -38 14 -40 51 -40 21 0 38 4 38 9 0 7 -30
92 -132 374 -9 24 -15 27 -57 27 l-47 0 -68 -192z m148 14 c14 -42 26 -80 26
-85 0 -4 -27 -7 -61 -7 -45 0 -60 3 -56 13 2 6 15 45 28 85 12 39 26 72 30 72
4 0 19 -35 33 -78z"/>
<path d="M3850 535 l0 -205 103 0 c77 0 112 5 142 19 92 41 133 140 104 246
-17 60 -46 95 -103 121 -43 20 -67 24 -148 24 l-98 0 0 -205z m219 117 c56
-40 76 -123 45 -187 -23 -49 -58 -68 -129 -69 l-60 -1 -3 129 c-1 72 0 136 3
144 8 21 110 9 144 -16z"/>
<path d="M2025 646 c-41 -18 -83 -69 -91 -111 -27 -145 90 -250 222 -200 41
15 84 61 84 88 0 17 -77 7 -95 -13 -23 -25 -75 -26 -105 -2 -34 28 -40 117
-10 155 27 34 87 38 115 7 12 -13 31 -20 57 -20 43 0 44 0 22 41 -29 57 -131
85 -199 55z"/>
<path d="M2384 646 c-86 -39 -118 -165 -63 -255 22 -36 88 -71 134 -71 61 0
145 56 145 97 0 22 -74 16 -95 -7 -18 -20 -58 -26 -90 -14 -44 17 -58 108 -25
162 17 27 25 32 58 32 26 0 45 -7 57 -20 13 -14 31 -20 62 -20 l45 0 -19 31
c-10 18 -30 40 -44 51 -33 25 -124 33 -165 14z"/>
<path d="M2743 641 c-48 -22 -73 -55 -83 -112 -16 -88 23 -167 95 -194 67 -26
129 -14 177 35 21 21 38 42 38 47 0 12 -82 3 -100 -12 -27 -22 -51 -25 -86
-10 -28 11 -54 45 -54 71 0 2 56 4 125 4 l125 0 0 32 c0 55 -36 114 -84 137
-52 26 -98 26 -153 2z m110 -52 c25 -11 55 -54 45 -64 -3 -3 -42 -5 -86 -3
l-81 3 12 25 c12 24 50 50 74 50 7 0 23 -5 36 -11z"/>
<path d="M3095 645 c-42 -22 -55 -43 -55 -86 0 -47 26 -70 108 -93 74 -20 92
-38 67 -66 -25 -27 -61 -25 -91 5 -17 17 -36 25 -59 25 -45 0 -46 -21 -2 -65
78 -78 237 -41 237 55 0 43 -29 69 -104 94 -79 25 -102 49 -72 72 28 20 63 17
83 -6 12 -13 30 -20 54 -20 32 0 36 3 32 19 -3 10 -17 31 -33 46 -35 34 -120
44 -165 20z"/>
<path d="M3423 645 c-38 -16 -53 -42 -53 -88 0 -45 23 -64 107 -92 72 -23 91
-47 57 -72 -28 -20 -61 -16 -82 12 -15 19 -28 24 -56 23 -43 -2 -46 -15 -10
-57 64 -76 220 -58 239 28 12 55 -16 87 -96 113 -78 25 -101 46 -80 72 19 22
64 20 86 -4 21 -23 85 -28 85 -7 0 23 -32 59 -66 73 -42 18 -90 17 -131 -1z"/>
<path d="M4340 638 c-55 -29 -80 -74 -80 -146 0 -122 92 -194 207 -163 37 10
103 67 103 89 0 13 -80 5 -98 -10 -51 -46 -132 -16 -132 48 0 11 23 14 120 14
l120 0 0 33 c-1 59 -34 115 -82 137 -57 26 -104 25 -158 -2z m119 -53 c26 -13
41 -33 41 -56 0 -5 -36 -9 -80 -9 -83 0 -89 4 -69 41 19 37 65 47 108 24z"/>
<path d="M4765 640 c-47 -24 -46 -24 -39 -5 5 12 -3 15 -35 15 l-41 0 0 -160
0 -160 40 0 40 0 0 110 c0 127 12 150 75 150 63 0 75 -23 75 -150 l0 -110 40
0 40 0 0 118 c0 134 -14 172 -75 198 -46 19 -73 18 -120 -6z"/>
<path d="M5293 649 c-90 -26 -129 -165 -72 -258 21 -34 87 -70 130 -71 60 0
120 33 144 80 13 25 13 25 -28 22 -23 -2 -50 -11 -59 -19 -9 -8 -33 -15 -54
-16 -28 -1 -42 5 -60 27 -45 52 -37 56 101 56 140 0 135 -3 114 75 -25 92
-112 134 -216 104z m125 -85 c12 -14 22 -29 22 -35 0 -5 -38 -9 -85 -9 -54 0
-85 4 -85 11 0 6 14 24 30 41 26 25 36 29 63 24 18 -3 42 -17 55 -32z"/>
<path d="M5050 490 l0 -160 35 0 35 0 0 160 0 160 -35 0 -35 0 0 -160z"/>
</g>
</svg>
